<svg xmlns="http://www.w3.org/2000/svg" viewBox="0 0 1536 695" preserveAspectRatio="xMidYMid" width="1536" height="695" xmlns:xlink="http://www.w3.org/1999/xlink" style="shape-rendering:auto;display:block;background-position-x:0%;background-position-y:0%;background-size:auto;background-origin:padding-box;background-clip:border-box;background:scroll rgb(8, 28, 84) none  repeat;width:1536px;height:695px;;animation:none"><g><linearGradient y2="1" y1="0" x2="0" x1="0" id="lg-m6ua806ubfh-0"><stop offset="0" stop-color="#081c54"></stop>

  
<stop offset="1" stop-color="#225ea8"></stop></linearGradient>
<linearGradient y2="1" y1="0" x2="0" x1="0" id="lg-m6ua806ubfh-1"><stop offset="0" stop-color="#225ea8"></stop>

  
<stop offset="1" stop-color="#1d91c0"></stop></linearGradient>
<linearGradient y2="1" y1="0" x2="0" x1="0" id="lg-m6ua806ubfh-2"><stop offset="0" stop-color="#1d91c0"></stop>

  
<stop offset="1" stop-color="#41b6c4"></stop></linearGradient>
<linearGradient y2="1" y1="0" x2="0" x1="0" id="lg-m6ua806ubfh-3"><stop offset="0" stop-color="#41b6c4"></stop>

  
<stop offset="1" stop-color="#7fcdbb"></stop></linearGradient>
<linearGradient y2="1" y1="0" x2="0" x1="0" id="lg-m6ua806ubfh-4"><stop offset="0" stop-color="#7fcdbb"></stop>

  
<stop offset="1" stop-color="#c7e9b4"></stop></linearGradient>
<linearGradient y2="1" y1="0" x2="0" x1="0" id="lg-m6ua806ubfh-5"><stop offset="0" stop-color="#c7e9b4"></stop>

  
<stop offset="1" stop-color="#f3f8cf"></stop></linearGradient>
<linearGradient y2="1" y1="0" x2="0" x1="0" id="lg-m6ua806ubfh-6"><stop offset="0" stop-color="#f3f8cf"></stop>

  
<stop offset="1" stop-color="#081c54"></stop></linearGradient>
<path fill-opacity="0.88" fill="url(#lg-m6ua806ubfh-0)" d="M 0 0 L 0 733.32 Q 153.6 703.93 307.2 674.86 T 614.4 682.32 T 921.6 581.76 T 1228.8 494.45 T 1536 480.62 L 1536 0 Z" style="fill:url('#lg-m6ua806ubfh-0');;animation:none"></path>
<path fill-opacity="0.88" fill="url(#lg-m6ua806ubfh-1)" d="M 0 0 L 0 656.641 Q 153.6 604.665 307.2 572.14 T 614.4 563.492 T 921.6 549.264 T 1228.8 458.392 T 1536 455.745 L 1536 0 Z" style="fill:url('#lg-m6ua806ubfh-1');;animation:none"></path>
<path fill-opacity="0.88" fill="url(#lg-m6ua806ubfh-2)" d="M 0 0 L 0 442.2 Q 153.6 462.58 307.2 440.12 T 614.4 472.55 T 921.6 466.07 T 1228.8 422.02 T 1536 404.93 L 1536 0 Z" style="fill:url('#lg-m6ua806ubfh-2');;animation:none"></path>
<path fill-opacity="0.88" fill="url(#lg-m6ua806ubfh-3)" d="M 0 0 L 0 383.305 Q 153.6 366.735 307.2 339.055 T 614.4 311.51 T 921.6 288.345 T 1228.8 276.32 T 1536 256.61 L 1536 0 Z" style="fill:url('#lg-m6ua806ubfh-3');;animation:none"></path>
<path fill-opacity="0.88" fill="url(#lg-m6ua806ubfh-4)" d="M 0 0 L 0 315.78 Q 153.6 295.55 307.2 259.31 T 614.4 206.25 T 921.6 255.98 T 1228.8 167.37 T 1536 217.43 L 1536 0 Z" style="fill:url('#lg-m6ua806ubfh-4');;animation:none"></path>
<path fill-opacity="0.88" fill="url(#lg-m6ua806ubfh-5)" d="M 0 0 L 0 202.381 Q 153.6 202.42 307.2 183.647 T 614.4 128.566 T 921.6 197.866 T 1228.8 156.021 T 1536 163.972 L 1536 0 Z" style="fill:url('#lg-m6ua806ubfh-5');;animation:none"></path>
<g></g></g><!-- [ldio] generated by https://loading.io --></svg>